<svg width="50" height="50" viewBox="0 0 50 50" fill="none" xmlns="http://www.w3.org/2000/svg">
<path d="M25.5292 5.59101C25.1924 5.24733 24.5878 5.24733 24.2511 5.59101C23.5867 6.26802 17.7626 12.3048 17.7626 16.0335C17.7626 19.7622 23.5867 25.799 24.2511 26.476C24.42 26.6473 24.6499 26.7438 24.8901 26.7438C25.1304 26.7438 25.3603 26.6473 25.5292 26.476C26.1936 25.799 32.0177 19.7622 32.0177 16.0335C32.0177 12.3048 26.1936 6.26802 25.5292 5.59101Z" fill="#14926F"/>
<path d="M20.4336 26.4414C17.7968 23.8035 9.40715 23.6518 8.46003 23.6426C8.24508 23.6426 7.98876 23.7357 7.81865 23.9058C7.64853 24.0736 7.55428 24.3069 7.55543 24.5483C7.56463 25.4954 7.7152 33.8839 10.352 36.5195C12.9888 39.1563 21.3761 39.3069 22.3244 39.3161C22.3267 39.3161 22.329 39.3161 22.3324 39.3161C22.3382 39.3161 22.3451 39.3161 22.3497 39.3161C22.8497 39.3253 23.2634 38.9207 23.2634 38.423C23.2634 38.3287 23.2497 38.2425 23.2244 38.1586C23.1922 36.454 22.9071 28.9127 20.4336 26.4414Z" fill="#14926F"/>
<path d="M41.9589 23.9071C41.79 23.7382 41.5474 23.6416 41.3176 23.6439C40.3693 23.6531 31.9796 23.8048 29.3452 26.4427C26.7084 29.0761 26.5567 37.4657 26.5486 38.4128C26.5463 38.6553 26.6406 38.8852 26.8107 39.0565C26.9785 39.2243 27.2072 39.3186 27.4452 39.3186C27.4475 39.3186 27.4498 39.3186 27.4521 39.3186C28.4015 39.3094 36.7888 39.1588 39.4245 36.522C42.0624 33.8864 42.2141 25.4979 42.2222 24.5508C42.2233 24.306 42.129 24.0749 41.9589 23.9071Z" fill="#14926F"/>
<path d="M50 11.1111C50 5 45 0 38.8889 0H36.1111C34.4444 0 33.3333 1.11111 33.3333 2.77778C33.3333 4.44444 34.4444 5.55556 36.1111 5.55556H38.8889C41.9444 5.55556 44.4444 8.05556 44.4444 11.1111V14.1667C44.4444 15.8333 45.5556 16.9444 47.2222 16.9444C48.8889 16.9444 50 15.8333 50 14.1667V11.1111ZM50 36.1111C50 34.4444 48.8889 33.3333 47.2222 33.3333C45.5556 33.3333 44.4444 34.4444 44.4444 36.1111V38.8889C44.4444 41.9444 41.9444 44.4444 38.8889 44.4444H36.1111C34.4444 44.4444 33.3333 45.5556 33.3333 47.2222C33.3333 48.8889 34.4444 50 36.1111 50H38.8889C45 50 50 45 50 38.8889V36.1111ZM0 38.8889C0 45 5 50 11.1111 50H13.8889C15.5556 50 16.6667 48.8889 16.6667 47.2222C16.6667 45.5556 15.5556 44.4444 13.8889 44.4444H11.1111C8.05556 44.4444 5.55556 41.9444 5.55556 38.8889V36.1111C5.55556 34.4444 4.44444 33.3333 2.77778 33.3333C1.11111 33.3333 0 34.4444 0 36.1111V38.8889ZM13.8889 0H11.1111C5 0 0 5 0 11.1111V13.8889C0 15.5556 1.11111 16.6667 2.77778 16.6667C4.44444 16.6667 5.55556 15.5556 5.55556 13.8889V11.1111C5.55556 8.05556 8.05556 5.55556 11.1111 5.55556H13.8889C15.5556 5.55556 16.6667 4.44444 16.6667 2.77778C16.6667 1.11111 15.5556 0 13.8889 0Z" fill="#14926F"/>
</svg>
