<svg width="50" height="50" viewBox="0 0 50 50" fill="none" xmlns="http://www.w3.org/2000/svg">
<path d="M47.8733 20.7997C39.0921 20.7997 31.323 25.839 26.9272 33.4285V16.3419C26.9272 14.7506 27.9904 13.4755 29.3704 13.4755C30.7505 13.4755 31.8136 14.7506 31.8136 16.3419C31.8136 17.5048 32.7746 18.4637 33.9399 18.4637C35.1053 18.4637 36.0662 17.5048 36.0662 16.3419C36.0662 12.4146 33.0915 9.23186 29.4727 9.23186C28.5731 9.23186 27.7042 9.42567 26.917 9.79291V2.1218C26.917 0.958889 25.9561 0 24.7907 0C23.6254 0 22.6644 0.958889 22.6644 2.1218V9.7011C21.9386 9.40527 21.1515 9.23186 20.3235 9.23186C16.7047 9.23186 13.7299 12.4146 13.7299 16.3419C13.7299 17.5048 14.6908 18.4637 15.8562 18.4637C17.0216 18.4637 17.9825 17.5048 17.9825 16.3419C17.9825 14.7506 19.0456 13.4755 20.4257 13.4755C21.8057 13.4755 22.8689 14.7506 22.8689 16.3419V33.0205C18.4425 25.6758 10.8062 20.7997 2.12728 20.7997C0.961905 20.7997 0.0112053 21.7586 0.000982756 22.9215C-0.121688 37.8761 11.256 49.9846 25.0054 49.9744C37.8858 50.6477 50.0814 37.9271 49.9996 22.9215C49.9894 21.7586 49.0387 20.7997 47.8733 20.7997ZM4.2638 25.1555C13.9446 26.3184 21.7035 34.9178 22.6644 45.741C12.8814 44.5679 5.22472 35.9787 4.2638 25.1555ZM27.3464 45.741C28.3073 34.9178 36.0662 26.3184 45.747 25.1555C44.7861 35.9787 37.1294 44.5679 27.3464 45.741Z" fill="#3D3D3D"/>
</svg>
